<mxfile host="Electron" modified="2023-04-25T00:52:37.027Z" agent="Mozilla/5.0 (Macintosh; Intel Mac OS X 10_15_7) AppleWebKit/537.36 (KHTML, like Gecko) draw.io/21.1.2 Chrome/106.0.5249.199 Electron/21.4.3 Safari/537.36" etag="QbGTkp8Qxfon6LVswaC_" version="21.1.2" type="device">
  <diagram name="Page-1" id="BKR_YkzgPGulqMtl8ffd">
    <mxGraphModel dx="1457" dy="1115" grid="1" gridSize="10" guides="1" tooltips="1" connect="1" arrows="1" fold="1" page="1" pageScale="1" pageWidth="1654" pageHeight="1169" background="none" math="0" shadow="0">
      <root>
        <mxCell id="0" />
        <mxCell id="1" parent="0" />
        <mxCell id="9XXUQVDzO5R3AnnSQiPl-25" value="" style="verticalAlign=top;verticalLabelPosition=bottom;labelPosition=center;align=center;html=1;outlineConnect=0;fillColor=#647687;strokeColor=#314354;gradientDirection=north;strokeWidth=2;shape=mxgraph.networks.terminal;fontColor=#ffffff;" vertex="1" parent="1">
          <mxGeometry x="530" y="550" width="180" height="130" as="geometry" />
        </mxCell>
        <mxCell id="9XXUQVDzO5R3AnnSQiPl-61" value="" style="rounded=0;whiteSpace=wrap;html=1;fillColor=#798FA3;fontColor=#ffffff;strokeColor=#3A7E87;" vertex="1" parent="1">
          <mxGeometry x="530" y="550" width="179" height="89" as="geometry" />
        </mxCell>
        <mxCell id="9XXUQVDzO5R3AnnSQiPl-42" value="" style="ellipse;shape=cloud;whiteSpace=wrap;html=1;fillColor=none;strokeColor=#6c8ebf;gradientColor=#7ea6e0;dashed=1;" vertex="1" parent="1">
          <mxGeometry x="805" y="65" width="120" height="80" as="geometry" />
        </mxCell>
        <mxCell id="9XXUQVDzO5R3AnnSQiPl-19" value="" style="rounded=1;whiteSpace=wrap;html=1;absoluteArcSize=1;fillColor=#647687;strokeColor=#314354;fontColor=#ffffff;" vertex="1" parent="1">
          <mxGeometry x="180" y="210" width="750" height="270" as="geometry" />
        </mxCell>
        <mxCell id="nwWhtCFXYri13Cr_h7zf-1" value="" style="rounded=1;whiteSpace=wrap;html=1;absoluteArcSize=1;fillColor=#4C5966;fontColor=#ffffff;strokeColor=#314354;" parent="1" vertex="1">
          <mxGeometry x="460" y="230" width="450" height="230" as="geometry" />
        </mxCell>
        <mxCell id="9XXUQVDzO5R3AnnSQiPl-14" value="" style="rounded=1;whiteSpace=wrap;html=1;absoluteArcSize=1;fillColor=#647687;strokeColor=#314354;fontColor=#ffffff;" vertex="1" parent="1">
          <mxGeometry x="480" y="270" width="410" height="90" as="geometry" />
        </mxCell>
        <mxCell id="nwWhtCFXYri13Cr_h7zf-4" value="&lt;b&gt;Server&lt;/b&gt;" style="text;html=1;strokeColor=none;fillColor=none;align=center;verticalAlign=middle;whiteSpace=wrap;rounded=0;" parent="1" vertex="1">
          <mxGeometry x="475" y="240" width="55" height="20" as="geometry" />
        </mxCell>
        <mxCell id="nwWhtCFXYri13Cr_h7zf-10" value="&lt;font style=&quot;font-size: 18px;&quot;&gt;vibin&lt;/font&gt;" style="text;html=1;strokeColor=none;fillColor=none;align=left;verticalAlign=top;whiteSpace=wrap;rounded=0;fontStyle=1" parent="1" vertex="1">
          <mxGeometry x="200" y="220" width="210" height="30" as="geometry" />
        </mxCell>
        <mxCell id="nwWhtCFXYri13Cr_h7zf-21" value="&lt;font color=&quot;#cccccc&quot;&gt;NAS (media storage)&lt;/font&gt;" style="fontColor=#ffffff;verticalAlign=top;verticalLabelPosition=bottom;labelPosition=center;align=center;html=1;outlineConnect=0;fillColor=#1ba1e2;strokeColor=#006EAF;gradientDirection=north;strokeWidth=2;shape=mxgraph.networks.server;" parent="1" vertex="1">
          <mxGeometry x="684.25" y="40" width="70" height="80" as="geometry" />
        </mxCell>
        <mxCell id="nwWhtCFXYri13Cr_h7zf-26" style="edgeStyle=orthogonalEdgeStyle;rounded=0;orthogonalLoop=1;jettySize=auto;html=1;startArrow=classic;startFill=1;" parent="1" source="nwWhtCFXYri13Cr_h7zf-22" edge="1">
          <mxGeometry relative="1" as="geometry">
            <mxPoint x="680" y="105" as="targetPoint" />
          </mxGeometry>
        </mxCell>
        <mxCell id="nwWhtCFXYri13Cr_h7zf-22" value="&lt;font color=&quot;#cccccc&quot;&gt;Streamer&lt;/font&gt;" style="fontColor=#ffffff;verticalAlign=top;verticalLabelPosition=bottom;labelPosition=center;align=center;html=1;outlineConnect=0;fillColor=#1ba1e2;strokeColor=#006EAF;gradientDirection=north;strokeWidth=2;shape=mxgraph.networks.modem;" parent="1" vertex="1">
          <mxGeometry x="510" y="90" width="100" height="30" as="geometry" />
        </mxCell>
        <mxCell id="nwWhtCFXYri13Cr_h7zf-34" value="&lt;font style=&quot;font-size: 10px;&quot;&gt;The Vibin UI, CLI, and other clients communicate with the back-end via the REST API and WebSocket server.&lt;/font&gt;" style="text;html=1;strokeColor=none;fillColor=none;align=center;verticalAlign=middle;whiteSpace=wrap;rounded=0;fontColor=#647687;" parent="1" vertex="1">
          <mxGeometry x="330" y="500" width="170" height="50" as="geometry" />
        </mxCell>
        <mxCell id="9XXUQVDzO5R3AnnSQiPl-1" value="" style="rounded=1;whiteSpace=wrap;html=1;absoluteArcSize=1;fillColor=#4C5966;fontColor=#ffffff;strokeColor=#314354;" vertex="1" parent="1">
          <mxGeometry x="200" y="300" width="210" height="160" as="geometry" />
        </mxCell>
        <mxCell id="9XXUQVDzO5R3AnnSQiPl-2" value="&lt;b&gt;Command Line Interface (CLI)&lt;/b&gt;" style="text;html=1;strokeColor=none;fillColor=none;align=center;verticalAlign=middle;whiteSpace=wrap;rounded=0;" vertex="1" parent="1">
          <mxGeometry x="205" y="310" width="200" height="30" as="geometry" />
        </mxCell>
        <mxCell id="9XXUQVDzO5R3AnnSQiPl-3" value="&lt;font color=&quot;#333333&quot;&gt;&lt;b&gt;serve&lt;/b&gt;&lt;/font&gt;" style="rounded=1;whiteSpace=wrap;html=1;absoluteArcSize=1;fillColor=#e3c800;strokeColor=#B09500;fontColor=#000000;" vertex="1" parent="1">
          <mxGeometry x="220" y="350" width="80" height="40" as="geometry" />
        </mxCell>
        <mxCell id="9XXUQVDzO5R3AnnSQiPl-10" value="&lt;font color=&quot;#333333&quot;&gt;Streamer interface&lt;br&gt;(&lt;b&gt;CXNv2&lt;/b&gt;)&lt;/font&gt;" style="rounded=1;whiteSpace=wrap;html=1;absoluteArcSize=1;fillColor=#798FA3;strokeColor=#48617A;fontColor=#ffffff;" vertex="1" parent="1">
          <mxGeometry x="495" y="290" width="140" height="50" as="geometry" />
        </mxCell>
        <mxCell id="9XXUQVDzO5R3AnnSQiPl-11" value="&lt;font color=&quot;#333333&quot;&gt;MediaServer interface (&lt;b&gt;Asset UPnP&lt;/b&gt;)&lt;/font&gt;" style="rounded=1;whiteSpace=wrap;html=1;absoluteArcSize=1;fillColor=#798FA3;strokeColor=#48617A;fontColor=#000000;" vertex="1" parent="1">
          <mxGeometry x="648.5" y="290" width="141.5" height="50" as="geometry" />
        </mxCell>
        <mxCell id="nwWhtCFXYri13Cr_h7zf-40" style="edgeStyle=orthogonalEdgeStyle;rounded=0;orthogonalLoop=1;jettySize=auto;html=1;exitX=0.5;exitY=0;exitDx=0;exitDy=0;startArrow=classic;startFill=1;" parent="1" source="9XXUQVDzO5R3AnnSQiPl-10" edge="1">
          <mxGeometry relative="1" as="geometry">
            <mxPoint x="565" y="140" as="targetPoint" />
          </mxGeometry>
        </mxCell>
        <mxCell id="9XXUQVDzO5R3AnnSQiPl-21" value="&lt;font color=&quot;#333333&quot;&gt;Database&lt;/font&gt;" style="fontColor=#E6E6E6;verticalAlign=top;verticalLabelPosition=bottom;labelPosition=center;align=center;html=1;outlineConnect=0;fillColor=#1BA1E2;strokeColor=#E6E6E6;gradientColor=none;gradientDirection=north;strokeWidth=2;shape=mxgraph.networks.storage;" vertex="1" parent="1">
          <mxGeometry x="820" y="290" width="40" height="40" as="geometry" />
        </mxCell>
        <mxCell id="9XXUQVDzO5R3AnnSQiPl-29" style="edgeStyle=orthogonalEdgeStyle;rounded=0;orthogonalLoop=1;jettySize=auto;html=1;exitX=0.75;exitY=1;exitDx=0;exitDy=0;startArrow=classic;startFill=1;" edge="1" parent="1">
          <mxGeometry relative="1" as="geometry">
            <mxPoint x="670" y="440" as="sourcePoint" />
            <mxPoint x="670" y="550" as="targetPoint" />
          </mxGeometry>
        </mxCell>
        <mxCell id="9XXUQVDzO5R3AnnSQiPl-32" style="edgeStyle=orthogonalEdgeStyle;rounded=0;orthogonalLoop=1;jettySize=auto;html=1;exitX=0.5;exitY=0;exitDx=0;exitDy=0;startArrow=classic;startFill=1;strokeColor=#999999;" edge="1" parent="1">
          <mxGeometry relative="1" as="geometry">
            <mxPoint x="684.5" y="360" as="targetPoint" />
            <mxPoint x="684.5" y="400" as="sourcePoint" />
          </mxGeometry>
        </mxCell>
        <mxCell id="9XXUQVDzO5R3AnnSQiPl-39" style="edgeStyle=orthogonalEdgeStyle;rounded=0;orthogonalLoop=1;jettySize=auto;html=1;exitX=0.5;exitY=0;exitDx=0;exitDy=0;startArrow=classic;startFill=1;" edge="1" parent="1" source="9XXUQVDzO5R3AnnSQiPl-11">
          <mxGeometry relative="1" as="geometry">
            <mxPoint x="720" y="140" as="targetPoint" />
            <mxPoint x="720" y="260" as="sourcePoint" />
          </mxGeometry>
        </mxCell>
        <mxCell id="9XXUQVDzO5R3AnnSQiPl-41" value="&lt;font color=&quot;#333333&quot;&gt;Wikipedia,&lt;br&gt;etc.&lt;br&gt;&lt;/font&gt;" style="ellipse;shape=cloud;whiteSpace=wrap;html=1;fillColor=#dae8fc;strokeColor=#6c8ebf;gradientColor=#7ea6e0;" vertex="1" parent="1">
          <mxGeometry x="800" y="60" width="120" height="80" as="geometry" />
        </mxCell>
        <mxCell id="9XXUQVDzO5R3AnnSQiPl-45" style="edgeStyle=orthogonalEdgeStyle;rounded=0;orthogonalLoop=1;jettySize=auto;html=1;startArrow=classic;startFill=1;" edge="1" parent="1">
          <mxGeometry relative="1" as="geometry">
            <mxPoint x="859.5" y="140" as="targetPoint" />
            <mxPoint x="860" y="270" as="sourcePoint" />
            <Array as="points">
              <mxPoint x="860" y="205" />
            </Array>
          </mxGeometry>
        </mxCell>
        <mxCell id="9XXUQVDzO5R3AnnSQiPl-49" style="edgeStyle=orthogonalEdgeStyle;rounded=0;orthogonalLoop=1;jettySize=auto;html=1;exitX=0.5;exitY=1;exitDx=0;exitDy=0;dashed=1;" edge="1" parent="1" source="9XXUQVDzO5R3AnnSQiPl-46">
          <mxGeometry relative="1" as="geometry">
            <mxPoint x="720" y="600" as="targetPoint" />
            <Array as="points">
              <mxPoint x="825" y="600" />
              <mxPoint x="720" y="600" />
            </Array>
          </mxGeometry>
        </mxCell>
        <mxCell id="9XXUQVDzO5R3AnnSQiPl-46" value="&lt;font color=&quot;#ffffff&quot;&gt;&lt;b style=&quot;&quot;&gt;&lt;font face=&quot;Courier New&quot;&gt;vibinui&lt;/font&gt;&lt;/b&gt; static files&lt;/font&gt;" style="rounded=1;whiteSpace=wrap;html=1;absoluteArcSize=1;fillColor=#647687;strokeColor=#48617A;gradientColor=#516E8A;dashed=1;gradientDirection=north;" vertex="1" parent="1">
          <mxGeometry x="760" y="400" width="130" height="40" as="geometry" />
        </mxCell>
        <mxCell id="9XXUQVDzO5R3AnnSQiPl-47" style="edgeStyle=orthogonalEdgeStyle;rounded=0;orthogonalLoop=1;jettySize=auto;html=1;exitX=0.75;exitY=1;exitDx=0;exitDy=0;startArrow=classic;startFill=1;" edge="1" parent="1">
          <mxGeometry relative="1" as="geometry">
            <mxPoint x="564.5" y="440" as="sourcePoint" />
            <mxPoint x="564.5" y="550" as="targetPoint" />
          </mxGeometry>
        </mxCell>
        <mxCell id="9XXUQVDzO5R3AnnSQiPl-50" style="edgeStyle=orthogonalEdgeStyle;rounded=0;orthogonalLoop=1;jettySize=auto;html=1;exitX=0.5;exitY=0;exitDx=0;exitDy=0;startArrow=classic;startFill=1;strokeColor=#999999;" edge="1" parent="1">
          <mxGeometry relative="1" as="geometry">
            <mxPoint x="544.5" y="360" as="targetPoint" />
            <mxPoint x="544.5" y="400" as="sourcePoint" />
          </mxGeometry>
        </mxCell>
        <mxCell id="9XXUQVDzO5R3AnnSQiPl-51" value="&lt;font color=&quot;#233b38&quot;&gt;everything in this box is part of &lt;font face=&quot;Courier New&quot;&gt;vibin&lt;/font&gt;&lt;/font&gt;" style="text;html=1;strokeColor=none;fillColor=none;align=left;verticalAlign=top;whiteSpace=wrap;rounded=0;fontStyle=1" vertex="1" parent="1">
          <mxGeometry x="200" y="246" width="220" height="30" as="geometry" />
        </mxCell>
        <mxCell id="9XXUQVDzO5R3AnnSQiPl-53" value="&lt;b&gt;WebSocket Server&lt;/b&gt;" style="rounded=1;whiteSpace=wrap;html=1;absoluteArcSize=1;fillColor=#e3c800;strokeColor=#B09500;fontColor=#000000;" vertex="1" parent="1">
          <mxGeometry x="620" y="400" width="130" height="40" as="geometry" />
        </mxCell>
        <mxCell id="9XXUQVDzO5R3AnnSQiPl-54" value="" style="edgeStyle=orthogonalEdgeStyle;rounded=0;orthogonalLoop=1;jettySize=auto;html=1;exitX=1;exitY=0.75;exitDx=0;exitDy=0;entryX=0;entryY=0.5;entryDx=0;entryDy=0;startArrow=classic;startFill=1;" edge="1" parent="1" source="9XXUQVDzO5R3AnnSQiPl-1" target="9XXUQVDzO5R3AnnSQiPl-52">
          <mxGeometry relative="1" as="geometry">
            <mxPoint x="410" y="420" as="sourcePoint" />
            <mxPoint x="1180" y="420" as="targetPoint" />
          </mxGeometry>
        </mxCell>
        <mxCell id="9XXUQVDzO5R3AnnSQiPl-52" value="&lt;b&gt;REST API&lt;/b&gt;" style="rounded=1;whiteSpace=wrap;html=1;absoluteArcSize=1;fillColor=#e3c800;strokeColor=#B09500;fontColor=#000000;" vertex="1" parent="1">
          <mxGeometry x="480" y="400" width="130" height="40" as="geometry" />
        </mxCell>
        <mxCell id="9XXUQVDzO5R3AnnSQiPl-58" value="&lt;font color=&quot;#333333&quot;&gt;&lt;b&gt;installui&lt;/b&gt;&lt;/font&gt;" style="rounded=1;whiteSpace=wrap;html=1;absoluteArcSize=1;fillColor=#e3c800;strokeColor=#B09500;fontColor=#000000;" vertex="1" parent="1">
          <mxGeometry x="310" y="350" width="80" height="40" as="geometry" />
        </mxCell>
        <mxCell id="9XXUQVDzO5R3AnnSQiPl-59" value="&lt;font color=&quot;#333333&quot;&gt;&lt;b&gt;browse&lt;/b&gt;&lt;/font&gt;" style="rounded=1;whiteSpace=wrap;html=1;absoluteArcSize=1;fillColor=#e3c800;strokeColor=#B09500;fontColor=#000000;" vertex="1" parent="1">
          <mxGeometry x="220" y="400" width="80" height="40" as="geometry" />
        </mxCell>
        <mxCell id="9XXUQVDzO5R3AnnSQiPl-60" value="&lt;font color=&quot;#333333&quot;&gt;etc...&lt;/font&gt;" style="rounded=1;whiteSpace=wrap;html=1;absoluteArcSize=1;fillColor=#e3c800;strokeColor=#B09500;fontColor=#000000;" vertex="1" parent="1">
          <mxGeometry x="310" y="400" width="80" height="40" as="geometry" />
        </mxCell>
        <mxCell id="9XXUQVDzO5R3AnnSQiPl-26" value="&lt;font color=&quot;#ffffff&quot; style=&quot;&quot;&gt;&lt;span style=&quot;font-size: 18px;&quot;&gt;vibinui&lt;/span&gt;&lt;br&gt;&lt;font style=&quot;font-weight: normal; font-size: 12px;&quot;&gt;running in browser&lt;/font&gt;&lt;br&gt;&lt;/font&gt;" style="text;html=1;strokeColor=none;fillColor=none;align=center;verticalAlign=middle;whiteSpace=wrap;rounded=0;fontStyle=1;fontColor=#2A3138;fontSize=17;" vertex="1" parent="1">
          <mxGeometry x="539.5" y="550" width="160" height="90.5" as="geometry" />
        </mxCell>
        <mxCell id="9XXUQVDzO5R3AnnSQiPl-63" value="&lt;font style=&quot;font-size: 10px;&quot;&gt;Items in yellow&lt;/font&gt;" style="text;html=1;strokeColor=none;fillColor=none;align=left;verticalAlign=middle;whiteSpace=wrap;rounded=0;fontColor=#647687;" vertex="1" parent="1">
          <mxGeometry x="200" y="605" width="75" height="20" as="geometry" />
        </mxCell>
        <mxCell id="9XXUQVDzO5R3AnnSQiPl-64" value="&lt;font style=&quot;font-size: 10px;&quot;&gt;intended for direct use&lt;/font&gt;" style="text;html=1;strokeColor=none;fillColor=none;align=left;verticalAlign=middle;whiteSpace=wrap;rounded=0;fontColor=#647687;" vertex="1" parent="1">
          <mxGeometry x="322" y="605" width="110" height="20" as="geometry" />
        </mxCell>
        <mxCell id="9XXUQVDzO5R3AnnSQiPl-65" value="" style="rounded=1;whiteSpace=wrap;html=1;absoluteArcSize=1;fillColor=#e3c800;strokeColor=#B09500;fontColor=#000000;" vertex="1" parent="1">
          <mxGeometry x="275" y="600" width="40" height="30" as="geometry" />
        </mxCell>
      </root>
    </mxGraphModel>
  </diagram>
</mxfile>
